{
  "accessors": [
    {
      "bufferView": 2,
      "componentType": 5126,
      "count": 65532,
      "max": [
        57.76969909667969,
        10.54699993133545,
        35.43120193481445
      ],
      "min": [
        31.709199905395508,
        -4.275799751281738,
        -31.94609832763672
      ],
      "type": "VEC3"
    },
    {
      "bufferView": 2,
      "byteOffset": 786384,
      "componentType": 5126,
      "count": 65532,
      "max": [
        0.999927818775177,
        0.9999901056289673,
        0.9999873638153076
      ],
      "min": [
        -0.999947190284729,
        -0.9999921917915344,
        -0.9999699592590332
      ],
      "type": "VEC3"
    },
    {
      "bufferView": 1,
      "componentType": 5126,
      "count": 65532,
      "max": [
        0.9885159730911255,
        1.0
      ],
      "min": [
        0.0,
        0.010855999775230885
      ],
      "type": "VEC2"
    },
    {
      "bufferView": 0,
      "componentType": 5125,
      "count": 305805,
      "type": "SCALAR"
    },
    {
      "bufferView": 2,
      "byteOffset": 1572768,
      "componentType": 5126,
      "count": 65532,
      "max": [
        47.59170150756836,
        10.917799949645996,
        47.580997467041016
      ],
      "min": [
        -18.392499923706055,
        -12.35990047454834,
        -58.228397369384766
      ],
      "type": "VEC3"
    },
    {
      "bufferView": 2,
      "byteOffset": 2359152,
      "componentType": 5126,
      "count": 65532,
      "max": [
        0.999983549118042,
        0.9999973773956299,
        0.999998152256012
      ],
      "min": [
        -0.9999576807022095,
        -0.9999746680259705,
        -0.9998123645782471
      ],
      "type": "VEC3"
    },
    {
      "bufferView": 1,
      "byteOffset": 524256,
      "componentType": 5126,
      "count": 65532,
      "max": [
        0.9934819936752319,
        1.0
      ],
      "min": [
        0.0,
        0.00961500033736229
      ],
      "type": "VEC2"
    },
    {
      "bufferView": 0,
      "byteOffset": 1223220,
      "componentType": 5125,
      "count": 299370,
      "type": "SCALAR"
    },
    {
      "bufferView": 2,
      "byteOffset": 3145536,
      "componentType": 5126,
      "count": 65532,
      "max": [
        35.71780014038086,
        11.981400489807129,
        58.32219696044922
      ],
      "min": [
        -43.47819900512695,
        -7.372300148010254,
        3.702000141143799
      ],
      "type": "VEC3"
    },
    {
      "bufferView": 2,
      "byteOffset": 3931920,
      "componentType": 5126,
      "count": 65532,
      "max": [
        0.9999964833259583,
        0.9999995827674866,
        0.999986469745636
      ],
      "min": [
        -0.9999381303787231,
        -0.9999493956565857,
        -0.999908447265625
      ],
      "type": "VEC3"
    },
    {
      "bufferView": 1,
      "byteOffset": 1048512,
      "componentType": 5126,
      "count": 65532,
      "max": [
        0.9984480142593384,
        1.0
      ],
      "min": [
        0.0,
        0.0027920000720769167
      ],
      "type": "VEC2"
    },
    {
      "bufferView": 0,
      "byteOffset": 2420700,
      "componentType": 5125,
      "count": 316248,
      "type": "SCALAR"
    },
    {
      "bufferView": 2,
      "byteOffset": 4718304,
      "componentType": 5126,
      "count": 65532,
      "max": [
        -3.9841997623443604,
        12.589600563049316,
        58.392799377441406
      ],
      "min": [
        -57.76969909667969,
        -7.365699768066406,
        -43.29930114746094
      ],
      "type": "VEC3"
    },
    {
      "bufferView": 2,
      "byteOffset": 5504688,
      "componentType": 5126,
      "count": 65532,
      "max": [
        0.9999446272850037,
        0.9999895691871643,
        0.9999986290931702
      ],
      "min": [
        -0.9999383091926575,
        -0.9999988675117493,
        -0.9999924898147583
      ],
      "type": "VEC3"
    },
    {
      "bufferView": 1,
      "byteOffset": 1572768,
      "componentType": 5126,
      "count": 65532,
      "max": [
        0.9996899962425232,
        1.0
      ],
      "min": [
        0.0,
        0.0003100000030826777
      ],
      "type": "VEC2"
    },
    {
      "bufferView": 0,
      "byteOffset": 3685692,
      "componentType": 5125,
      "count": 316503,
      "type": "SCALAR"
    },
    {
      "bufferView": 2,
      "byteOffset": 6291072,
      "componentType": 5126,
      "count": 55651,
      "max": [
        9.979100227355957,
        11.809399604797363,
        56.97480010986328
      ],
      "min": [
        -40.211299896240234,
        -8.603400230407715,
        -58.38180160522461
      ],
      "type": "VEC3"
    },
    {
      "bufferView": 2,
      "byteOffset": 6958884,
      "componentType": 5126,
      "count": 55651,
      "max": [
        0.9999078512191772,
        0.9999895691871643,
        0.9999415278434753
      ],
      "min": [
        -0.9999849796295166,
        -0.9999950528144836,
        -0.9999857544898987
      ],
      "type": "VEC3"
    },
    {
      "bufferView": 1,
      "byteOffset": 2097024,
      "componentType": 5126,
      "count": 55651,
      "max": [
        0.9953449964523315,
        1.0
      ],
      "min": [
        0.0,
        0.004652999807149172
      ],
      "type": "VEC2"
    },
    {
      "bufferView": 0,
      "byteOffset": 4951704,
      "componentType": 5125,
      "count": 262074,
      "type": "SCALAR"
    }
  ],
  "asset": {
    "extras": {
      "author": "franciscomedina77 (https://sketchfab.com/franciscomedina77)",
      "license": "CC-BY-4.0 (http://creativecommons.org/licenses/by/4.0/)",
      "source": "https://sketchfab.com/3d-models/collar-de-piedras-taino-3127e91bea8b4b11bfbc5f79ee450617",
      "title": "Collar De Piedras Taíno"
    },
    "generator": "Sketchfab-16.72.0",
    "version": "2.0"
  },
  "bufferViews": [
    {
      "buffer": 0,
      "byteLength": 6000000,
      "name": "floatBufferViews",
      "target": 34963
    },
    {
      "buffer": 0,
      "byteLength": 2542232,
      "byteOffset": 6000000,
      "byteStride": 8,
      "name": "floatBufferViews",
      "target": 34962
    },
    {
      "buffer": 0,
      "byteLength": 7626696,
      "byteOffset": 8542232,
      "byteStride": 12,
      "name": "floatBufferViews",
      "target": 34962
    }
  ],
  "buffers": [
    {
      "byteLength": 16168928,
      "uri": "scene.bin"
    }
  ],
  "extensionsUsed": [
    "KHR_materials_specular"
  ],
  "images": [
    {
      "uri": "textures/Material.625_baseColor.png"
    }
  ],
  "materials": [
    {
      "doubleSided": true,
      "extensions": {
        "KHR_materials_specular": {
          "specularColorFactor": [
            1.0,
            1.0,
            1.0
          ],
          "specularFactor": 0.5159021574260289
        }
      },
      "name": "Material.625",
      "pbrMetallicRoughness": {
        "baseColorTexture": {
          "index": 0
        },
        "metallicFactor": 0.13330254488404916,
        "roughnessFactor": 0.9031355134532822
      }
    }
  ],
  "meshes": [
    {
      "name": "material_Material.625_0",
      "primitives": [
        {
          "attributes": {
            "NORMAL": 1,
            "POSITION": 0,
            "TEXCOORD_0": 2
          },
          "indices": 3,
          "material": 0,
          "mode": 4
        }
      ]
    },
    {
      "name": "material_Material.625_0",
      "primitives": [
        {
          "attributes": {
            "NORMAL": 5,
            "POSITION": 4,
            "TEXCOORD_0": 6
          },
          "indices": 7,
          "material": 0,
          "mode": 4
        }
      ]
    },
    {
      "name": "material_Material.625_0",
      "primitives": [
        {
          "attributes": {
            "NORMAL": 9,
            "POSITION": 8,
            "TEXCOORD_0": 10
          },
          "indices": 11,
          "material": 0,
          "mode": 4
        }
      ]
    },
    {
      "name": "material_Material.625_0",
      "primitives": [
        {
          "attributes": {
            "NORMAL": 13,
            "POSITION": 12,
            "TEXCOORD_0": 14
          },
          "indices": 15,
          "material": 0,
          "mode": 4
        }
      ]
    },
    {
      "name": "material_Material.625_0",
      "primitives": [
        {
          "attributes": {
            "NORMAL": 17,
            "POSITION": 16,
            "TEXCOORD_0": 18
          },
          "indices": 19,
          "material": 0,
          "mode": 4
        }
      ]
    }
  ],
  "nodes": [
    {
      "children": [
        1
      ],
      "matrix": [
        1.0,
        0.0,
        0.0,
        0.0,
        0.0,
        2.220446049250313e-16,
        -1.0,
        0.0,
        0.0,
        1.0,
        2.220446049250313e-16,
        0.0,
        0.0,
        0.0,
        0.0,
        1.0
      ],
      "name": "Sketchfab_model"
    },
    {
      "children": [
        2
      ],
      "matrix": [
        0.009999999776482582,
        0.0,
        0.0,
        0.0,
        0.0,
        0.0,
        0.009999999776482582,
        0.0,
        0.0,
        -0.009999999776482582,
        0.0,
        0.0,
        0.0,
        0.0,
        0.0,
        1.0
      ],
      "name": "497b50a3c4154871a3d8106ec5d8601a.fbx"
    },
    {
      "children": [
        3
      ],
      "name": "RootNode"
    },
    {
      "children": [
        4,
        5,
        6,
        7,
        8
      ],
      "matrix": [
        1.0,
        0.0,
        0.0,
        0.0,
        0.0,
        -4.371139006309477e-08,
        0.999999999999999,
        0.0,
        0.0,
        -0.999999999999999,
        -4.371139006309477e-08,
        0.0,
        0.0,
        0.0,
        0.0,
        1.0
      ],
      "name": "material"
    },
    {
      "mesh": 0,
      "name": "material_Material.625_0"
    },
    {
      "mesh": 1,
      "name": "material_Material.625_0"
    },
    {
      "mesh": 2,
      "name": "material_Material.625_0"
    },
    {
      "mesh": 3,
      "name": "material_Material.625_0"
    },
    {
      "mesh": 4,
      "name": "material_Material.625_0"
    }
  ],
  "samplers": [
    {
      "magFilter": 9729,
      "minFilter": 9987,
      "wrapS": 10497,
      "wrapT": 10497
    }
  ],
  "scene": 0,
  "scenes": [
    {
      "name": "Sketchfab_Scene",
      "nodes": [
        0
      ]
    }
  ],
  "textures": [
    {
      "sampler": 0,
      "source": 0
    }
  ]
}
