{
  "accessors": [
    {
      "bufferView": 2,
      "componentType": 5126,
      "count": 65532,
      "max": [
        15.411398887634277,
        16.17639923095703,
        56.73440170288086
      ],
      "min": [
        -10.305699348449707,
        -16.067899703979492,
        6.554699897766113
      ],
      "type": "VEC3"
    },
    {
      "bufferView": 2,
      "byteOffset": 786384,
      "componentType": 5126,
      "count": 65532,
      "max": [
        0.9999967813491821,
        0.9999710917472839,
        0.9974378347396851
      ],
      "min": [
        -0.9969485402107239,
        -0.9999665021896362,
        -0.9993183016777039
      ],
      "type": "VEC3"
    },
    {
      "bufferView": 1,
      "componentType": 5126,
      "count": 65532,
      "max": [
        0.9680669903755188,
        1.0
      ],
      "min": [
        0.0,
        0.03137600049376488
      ],
      "type": "VEC2"
    },
    {
      "bufferView": 0,
      "componentType": 5125,
      "count": 284766,
      "type": "SCALAR"
    },
    {
      "bufferView": 2,
      "byteOffset": 1572768,
      "componentType": 5126,
      "count": 65532,
      "max": [
        20.265201568603516,
        18.345500946044922,
        52.9744987487793
      ],
      "min": [
        -17.379199981689453,
        -15.26360034942627,
        -55.059600830078125
      ],
      "type": "VEC3"
    },
    {
      "bufferView": 2,
      "byteOffset": 2359152,
      "componentType": 5126,
      "count": 65532,
      "max": [
        0.9999925494194031,
        0.9999774694442749,
        0.9998470544815063
      ],
      "min": [
        -0.9999834299087524,
        -0.9999999403953552,
        -0.9999992251396179
      ],
      "type": "VEC3"
    },
    {
      "bufferView": 1,
      "byteOffset": 524256,
      "componentType": 5126,
      "count": 65532,
      "max": [
        0.978422999382019,
        1.0
      ],
      "min": [
        0.0,
        0.02101299911737442
      ],
      "type": "VEC2"
    },
    {
      "bufferView": 0,
      "byteOffset": 1139064,
      "componentType": 5125,
      "count": 284439,
      "type": "SCALAR"
    },
    {
      "bufferView": 2,
      "byteOffset": 3145536,
      "componentType": 5126,
      "count": 65532,
      "max": [
        19.879600524902344,
        16.289400100708008,
        49.970401763916016
      ],
      "min": [
        -19.086200714111328,
        -18.348899841308594,
        -55.84800338745117
      ],
      "type": "VEC3"
    },
    {
      "bufferView": 2,
      "byteOffset": 3931920,
      "componentType": 5126,
      "count": 65532,
      "max": [
        0.9999816417694092,
        0.9999986886978149,
        0.9999803900718689
      ],
      "min": [
        -0.9999979138374329,
        -0.9999129772186279,
        -0.9999092817306519
      ],
      "type": "VEC3"
    },
    {
      "bufferView": 1,
      "byteOffset": 1048512,
      "componentType": 5126,
      "count": 65532,
      "max": [
        0.9945340156555176,
        1.0
      ],
      "min": [
        0.0,
        0.0031659998930990696
      ],
      "type": "VEC2"
    },
    {
      "bufferView": 0,
      "byteOffset": 2276820,
      "componentType": 5125,
      "count": 290883,
      "type": "SCALAR"
    },
    {
      "bufferView": 2,
      "byteOffset": 4718304,
      "componentType": 5126,
      "count": 65532,
      "max": [
        7.808700084686279,
        14.531000137329102,
        56.75129699707031
      ],
      "min": [
        -20.265201568603516,
        -16.617000579833984,
        -34.973899841308594
      ],
      "type": "VEC3"
    },
    {
      "bufferView": 2,
      "byteOffset": 5504688,
      "componentType": 5126,
      "count": 65532,
      "max": [
        0.994922935962677,
        0.9999964237213135,
        0.9999992847442627
      ],
      "min": [
        -0.9999883770942688,
        -0.9999974966049194,
        -0.999934196472168
      ],
      "type": "VEC3"
    },
    {
      "bufferView": 1,
      "byteOffset": 1572768,
      "componentType": 5126,
      "count": 65532,
      "max": [
        0.9997119903564453,
        1.0
      ],
      "min": [
        0.0,
        0.0002880000101868063
      ],
      "type": "VEC2"
    },
    {
      "bufferView": 0,
      "byteOffset": 3440352,
      "componentType": 5125,
      "count": 274275,
      "type": "SCALAR"
    },
    {
      "bufferView": 2,
      "byteOffset": 6291072,
      "componentType": 5126,
      "count": 65532,
      "max": [
        10.833499908447266,
        13.906299591064453,
        49.393497467041016
      ],
      "min": [
        -17.986900329589844,
        -18.306900024414063,
        -55.85209655761719
      ],
      "type": "VEC3"
    },
    {
      "bufferView": 2,
      "byteOffset": 7077456,
      "componentType": 5126,
      "count": 65532,
      "max": [
        0.9999216794967651,
        0.9999802112579346,
        0.9999325275421143
      ],
      "min": [
        -0.999932587146759,
        -0.9999881982803345,
        -0.9999920129776001
      ],
      "type": "VEC3"
    },
    {
      "bufferView": 1,
      "byteOffset": 2097024,
      "componentType": 5126,
      "count": 65532,
      "max": [
        0.9899309873580933,
        1.0
      ],
      "min": [
        0.0,
        0.010075000114738941
      ],
      "type": "VEC2"
    },
    {
      "bufferView": 0,
      "byteOffset": 4537452,
      "componentType": 5125,
      "count": 288804,
      "type": "SCALAR"
    },
    {
      "bufferView": 2,
      "byteOffset": 7863840,
      "componentType": 5126,
      "count": 16094,
      "max": [
        19.36859893798828,
        15.882200241088867,
        -18.84469985961914
      ],
      "min": [
        -16.951200485229492,
        -15.006199836730957,
        -56.885101318359375
      ],
      "type": "VEC3"
    },
    {
      "bufferView": 2,
      "byteOffset": 8056968,
      "componentType": 5126,
      "count": 16094,
      "max": [
        0.9608879685401917,
        0.9999802112579346,
        0.9181197285652161
      ],
      "min": [
        -0.9994805455207825,
        -0.9998952746391296,
        -0.9999998807907104
      ],
      "type": "VEC3"
    },
    {
      "bufferView": 1,
      "byteOffset": 2621280,
      "componentType": 5126,
      "count": 16094,
      "max": [
        0.983601987361908,
        1.0
      ],
      "min": [
        0.0,
        0.015831999480724335
      ],
      "type": "VEC2"
    },
    {
      "bufferView": 0,
      "byteOffset": 5692668,
      "componentType": 5125,
      "count": 76797,
      "type": "SCALAR"
    }
  ],
  "asset": {
    "extras": {
      "author": "franciscomedina77 (https://sketchfab.com/franciscomedina77)",
      "license": "CC-BY-4.0 (http://creativecommons.org/licenses/by/4.0/)",
      "source": "https://sketchfab.com/3d-models/mesa-ceremonial-de-la-cohoba-taina-ac75ce1e3dd74f79a30d4e0cdf629780",
      "title": "Mesa ceremonial de la Cohoba Taína"
    },
    "generator": "Sketchfab-16.72.0",
    "version": "2.0"
  },
  "bufferViews": [
    {
      "buffer": 0,
      "byteLength": 5999856,
      "name": "floatBufferViews",
      "target": 34963
    },
    {
      "buffer": 0,
      "byteLength": 2750032,
      "byteOffset": 5999856,
      "byteStride": 8,
      "name": "floatBufferViews",
      "target": 34962
    },
    {
      "buffer": 0,
      "byteLength": 8250096,
      "byteOffset": 8749888,
      "byteStride": 12,
      "name": "floatBufferViews",
      "target": 34962
    }
  ],
  "buffers": [
    {
      "byteLength": 16999984,
      "uri": "scene.bin"
    }
  ],
  "images": [
    {
      "uri": "textures/Material.459_baseColor.png"
    }
  ],
  "materials": [
    {
      "doubleSided": true,
      "name": "Material.459",
      "pbrMetallicRoughness": {
        "baseColorTexture": {
          "index": 0
        },
        "metallicFactor": 0.0,
        "roughnessFactor": 0.45373279395952837
      }
    }
  ],
  "meshes": [
    {
      "name": "material_Material.459_0",
      "primitives": [
        {
          "attributes": {
            "NORMAL": 1,
            "POSITION": 0,
            "TEXCOORD_0": 2
          },
          "indices": 3,
          "material": 0,
          "mode": 4
        }
      ]
    },
    {
      "name": "material_Material.459_0",
      "primitives": [
        {
          "attributes": {
            "NORMAL": 5,
            "POSITION": 4,
            "TEXCOORD_0": 6
          },
          "indices": 7,
          "material": 0,
          "mode": 4
        }
      ]
    },
    {
      "name": "material_Material.459_0",
      "primitives": [
        {
          "attributes": {
            "NORMAL": 9,
            "POSITION": 8,
            "TEXCOORD_0": 10
          },
          "indices": 11,
          "material": 0,
          "mode": 4
        }
      ]
    },
    {
      "name": "material_Material.459_0",
      "primitives": [
        {
          "attributes": {
            "NORMAL": 13,
            "POSITION": 12,
            "TEXCOORD_0": 14
          },
          "indices": 15,
          "material": 0,
          "mode": 4
        }
      ]
    },
    {
      "name": "material_Material.459_0",
      "primitives": [
        {
          "attributes": {
            "NORMAL": 17,
            "POSITION": 16,
            "TEXCOORD_0": 18
          },
          "indices": 19,
          "material": 0,
          "mode": 4
        }
      ]
    },
    {
      "name": "material_Material.459_0",
      "primitives": [
        {
          "attributes": {
            "NORMAL": 21,
            "POSITION": 20,
            "TEXCOORD_0": 22
          },
          "indices": 23,
          "material": 0,
          "mode": 4
        }
      ]
    }
  ],
  "nodes": [
    {
      "children": [
        1
      ],
      "matrix": [
        1.0,
        0.0,
        0.0,
        0.0,
        0.0,
        2.220446049250313e-16,
        -1.0,
        0.0,
        0.0,
        1.0,
        2.220446049250313e-16,
        0.0,
        0.0,
        0.0,
        0.0,
        1.0
      ],
      "name": "Sketchfab_model"
    },
    {
      "children": [
        2
      ],
      "matrix": [
        0.009999999776482582,
        0.0,
        0.0,
        0.0,
        0.0,
        0.0,
        0.009999999776482582,
        0.0,
        0.0,
        -0.009999999776482582,
        0.0,
        0.0,
        0.0,
        0.0,
        0.0,
        1.0
      ],
      "name": "98813d333cdb47bfa549402f215dc23d.fbx"
    },
    {
      "children": [
        3
      ],
      "name": "RootNode"
    },
    {
      "children": [
        4,
        5,
        6,
        7,
        8,
        9
      ],
      "matrix": [
        1.0,
        0.0,
        0.0,
        0.0,
        0.0,
        -4.371139006309477e-08,
        0.999999999999999,
        0.0,
        0.0,
        -0.999999999999999,
        -4.371139006309477e-08,
        0.0,
        0.0,
        0.0,
        0.0,
        1.0
      ],
      "name": "material"
    },
    {
      "mesh": 0,
      "name": "material_Material.459_0"
    },
    {
      "mesh": 1,
      "name": "material_Material.459_0"
    },
    {
      "mesh": 2,
      "name": "material_Material.459_0"
    },
    {
      "mesh": 3,
      "name": "material_Material.459_0"
    },
    {
      "mesh": 4,
      "name": "material_Material.459_0"
    },
    {
      "mesh": 5,
      "name": "material_Material.459_0"
    }
  ],
  "samplers": [
    {
      "magFilter": 9729,
      "minFilter": 9987,
      "wrapS": 10497,
      "wrapT": 10497
    }
  ],
  "scene": 0,
  "scenes": [
    {
      "name": "Sketchfab_Scene",
      "nodes": [
        0
      ]
    }
  ],
  "textures": [
    {
      "sampler": 0,
      "source": 0
    }
  ]
}
