{
  "accessors": [
    {
      "bufferView": 2,
      "componentType": 5126,
      "count": 65532,
      "max": [
        0.8186690211296082,
        5.0625481605529785,
        0.6458449959754944
      ],
      "min": [
        -0.604993999004364,
        4.128973960876465,
        -0.36333999037742615
      ],
      "type": "VEC3"
    },
    {
      "bufferView": 2,
      "byteOffset": 786384,
      "componentType": 5126,
      "count": 65532,
      "max": [
        0.9999786019325256,
        0.9998201131820679,
        0.9997151494026184
      ],
      "min": [
        -0.9999067783355713,
        -0.9999616146087646,
        -0.999987006187439
      ],
      "type": "VEC3"
    },
    {
      "bufferView": 3,
      "componentType": 5126,
      "count": 65532,
      "max": [
        0.9529411792755127,
        0.9372549057006836,
        0.8823529481887817,
        1.0
      ],
      "min": [
        0.35686275362968445,
        0.27450981736183167,
        0.24313725531101227,
        1.0
      ],
      "type": "VEC4"
    },
    {
      "bufferView": 1,
      "componentType": 5126,
      "count": 65532,
      "max": [
        0.9684799909591675,
        1.0
      ],
      "min": [
        0.0,
        0.008661000058054924
      ],
      "type": "VEC2"
    },
    {
      "bufferView": 0,
      "componentType": 5125,
      "count": 352575,
      "type": "SCALAR"
    },
    {
      "bufferView": 2,
      "byteOffset": 1572768,
      "componentType": 5126,
      "count": 65532,
      "max": [
        0.9473670125007629,
        5.101002216339111,
        0.5951499938964844
      ],
      "min": [
        -0.41508400440216064,
        4.084136962890625,
        -0.3438360095024109
      ],
      "type": "VEC3"
    },
    {
      "bufferView": 2,
      "byteOffset": 2359152,
      "componentType": 5126,
      "count": 65532,
      "max": [
        0.9999986886978149,
        0.9997720122337341,
        0.9980577230453491
      ],
      "min": [
        -0.9245733022689819,
        -0.9999903440475464,
        -0.9999854564666748
      ],
      "type": "VEC3"
    },
    {
      "bufferView": 3,
      "byteOffset": 1048512,
      "componentType": 5126,
      "count": 65532,
      "max": [
        0.9058823585510254,
        0.7843137383460999,
        0.7215686440467834,
        1.0
      ],
      "min": [
        0.49803921580314636,
        0.4000000059604645,
        0.32156863808631897,
        1.0
      ],
      "type": "VEC4"
    },
    {
      "bufferView": 1,
      "byteOffset": 524256,
      "componentType": 5126,
      "count": 65532,
      "max": [
        0.9816330075263977,
        0.9886279702186584
      ],
      "min": [
        0.00978699978441,
        0.0
      ],
      "type": "VEC2"
    },
    {
      "bufferView": 0,
      "byteOffset": 1410300,
      "componentType": 5125,
      "count": 346083,
      "type": "SCALAR"
    },
    {
      "bufferView": 2,
      "byteOffset": 3145536,
      "componentType": 5126,
      "count": 39031,
      "max": [
        0.946960985660553,
        5.100831031799316,
        0.6458449959754944
      ],
      "min": [
        -0.44359099864959717,
        4.084571838378906,
        -0.36333999037742615
      ],
      "type": "VEC3"
    },
    {
      "bufferView": 2,
      "byteOffset": 3613908,
      "componentType": 5126,
      "count": 39031,
      "max": [
        0.9999986886978149,
        0.9995474815368652,
        0.9997151494026184
      ],
      "min": [
        -0.9951784014701843,
        -0.9999903440475464,
        -0.9999575018882751
      ],
      "type": "VEC3"
    },
    {
      "bufferView": 3,
      "byteOffset": 2097024,
      "componentType": 5126,
      "count": 39031,
      "max": [
        0.9215686321258545,
        0.8666666746139526,
        0.8196078538894653,
        1.0
      ],
      "min": [
        0.5176470875740051,
        0.3686274588108063,
        0.30588236451148987,
        1.0
      ],
      "type": "VEC4"
    },
    {
      "bufferView": 1,
      "byteOffset": 1048512,
      "componentType": 5126,
      "count": 39031,
      "max": [
        0.9819949865341187,
        0.9999359846115112
      ],
      "min": [
        0.0016759999562054873,
        0.0008689999813213944
      ],
      "type": "VEC2"
    },
    {
      "bufferView": 0,
      "byteOffset": 2794632,
      "componentType": 5125,
      "count": 141186,
      "type": "SCALAR"
    }
  ],
  "asset": {
    "extras": {
      "author": "Princeton University Art Museum (https://sketchfab.com/princetonuniversityartmuseum)",
      "license": "CC-BY-4.0 (http://creativecommons.org/licenses/by/4.0/)",
      "source": "https://sketchfab.com/3d-models/taino-face-cemi-9276aebd57374ebb884eb024d2ed94b5",
      "title": "Taíno Face Cemí"
    },
    "generator": "Sketchfab-15.42.0",
    "version": "2.0"
  },
  "bufferViews": [
    {
      "buffer": 0,
      "byteLength": 3359376,
      "name": "floatBufferViews",
      "target": 34963
    },
    {
      "buffer": 0,
      "byteLength": 1360760,
      "byteOffset": 3359376,
      "byteStride": 8,
      "name": "floatBufferViews",
      "target": 34962
    },
    {
      "buffer": 0,
      "byteLength": 4082280,
      "byteOffset": 4720136,
      "byteStride": 12,
      "name": "floatBufferViews",
      "target": 34962
    },
    {
      "buffer": 0,
      "byteLength": 2721520,
      "byteOffset": 8802416,
      "byteStride": 16,
      "name": "floatBufferViews",
      "target": 34962
    }
  ],
  "buffers": [
    {
      "byteLength": 11523936,
      "uri": "scene.bin"
    }
  ],
  "extensionsUsed": [
    "KHR_materials_specular"
  ],
  "images": [
    {
      "uri": "textures/TC2018-69-8_baseColor.jpeg"
    },
    {
      "uri": "textures/TC2018-69-8_specularf0.png"
    }
  ],
  "materials": [
    {
      "doubleSided": true,
      "extensions": {
        "KHR_materials_specular": {
          "specularColorFactor": [
            1.0,
            1.0,
            1.0
          ],
          "specularFactor": 0.5200076219512195,
          "specularTexture": {
            "index": 1
          }
        }
      },
      "name": "TC2018-69-8",
      "pbrMetallicRoughness": {
        "baseColorFactor": [
          0.44683689024390244,
          0.44683689024390244,
          0.44683689024390244,
          1.0
        ],
        "baseColorTexture": {
          "index": 0
        },
        "metallicFactor": 0.0
      }
    }
  ],
  "meshes": [
    {
      "name": "Object_0",
      "primitives": [
        {
          "attributes": {
            "COLOR_0": 2,
            "NORMAL": 1,
            "POSITION": 0,
            "TEXCOORD_0": 3
          },
          "indices": 4,
          "material": 0,
          "mode": 4
        }
      ]
    },
    {
      "name": "Object_1",
      "primitives": [
        {
          "attributes": {
            "COLOR_0": 7,
            "NORMAL": 6,
            "POSITION": 5,
            "TEXCOORD_0": 8
          },
          "indices": 9,
          "material": 0,
          "mode": 4
        }
      ]
    },
    {
      "name": "Object_2",
      "primitives": [
        {
          "attributes": {
            "COLOR_0": 12,
            "NORMAL": 11,
            "POSITION": 10,
            "TEXCOORD_0": 13
          },
          "indices": 14,
          "material": 0,
          "mode": 4
        }
      ]
    }
  ],
  "nodes": [
    {
      "children": [
        1
      ],
      "matrix": [
        -0.023744681850075722,
        -0.9989176988601685,
        -0.03999496623873733,
        0.0,
        0.03132905811071396,
        -0.040730111300945504,
        0.9986789226531982,
        0.0,
        -0.9992270469665527,
        0.022460307925939553,
        0.03226227313280106,
        0.0,
        0.0,
        0.0,
        0.0,
        1.0
      ],
      "name": "Sketchfab_model"
    },
    {
      "children": [
        2,
        3,
        4
      ],
      "name": "TC2018-69-8.obj.cleaner.materialmerger.gles"
    },
    {
      "mesh": 0,
      "name": "Object_2"
    },
    {
      "mesh": 1,
      "name": "Object_3"
    },
    {
      "mesh": 2,
      "name": "Object_4"
    }
  ],
  "samplers": [
    {
      "magFilter": 9729,
      "minFilter": 9987,
      "wrapS": 10497,
      "wrapT": 10497
    }
  ],
  "scene": 0,
  "scenes": [
    {
      "name": "Sketchfab_Scene",
      "nodes": [
        0
      ]
    }
  ],
  "textures": [
    {
      "sampler": 0,
      "source": 0
    },
    {
      "sampler": 0,
      "source": 1
    }
  ]
}
