{
  "accessors": [
    {
      "bufferView": 2,
      "componentType": 5126,
      "count": 65532,
      "max": [
        0.5252540111541748,
        0.03354699909687042,
        0.24229800701141357
      ],
      "min": [
        0.14542900025844574,
        -0.058180999010801315,
        -0.3228920102119446
      ],
      "type": "VEC3"
    },
    {
      "bufferView": 2,
      "byteOffset": 786384,
      "componentType": 5126,
      "count": 65532,
      "max": [
        0.9999692440032959,
        0.9999996423721313,
        0.9999949932098389
      ],
      "min": [
        -0.999816358089447,
        -0.9999967813491821,
        -0.9999979734420776
      ],
      "type": "VEC3"
    },
    {
      "bufferView": 3,
      "componentType": 5126,
      "count": 65532,
      "max": [
        0.9999777674674988,
        0.9999778270721436,
        0.9999996423721313,
        1.0
      ],
      "min": [
        -0.9999983310699463,
        -0.9999968409538269,
        -0.9999918937683105,
        -1.0
      ],
      "type": "VEC4"
    },
    {
      "bufferView": 1,
      "componentType": 5126,
      "count": 65532,
      "max": [
        0.9996259808540344,
        0.9996259808540344
      ],
      "min": [
        0.00037399999564513564,
        0.00037401914596557617
      ],
      "type": "VEC2"
    },
    {
      "bufferView": 1,
      "byteOffset": 524256,
      "componentType": 5126,
      "count": 65532,
      "max": [
        0.9996259808540344,
        0.9996259808540344
      ],
      "min": [
        0.00037399999564513564,
        0.00037401914596557617
      ],
      "type": "VEC2"
    },
    {
      "bufferView": 1,
      "byteOffset": 1048512,
      "componentType": 5126,
      "count": 65532,
      "max": [
        0.9996259808540344,
        0.9996259808540344
      ],
      "min": [
        0.00037399999564513564,
        0.00037401914596557617
      ],
      "type": "VEC2"
    },
    {
      "bufferView": 1,
      "byteOffset": 1572768,
      "componentType": 5126,
      "count": 65532,
      "max": [
        0.9996259808540344,
        0.9996259808540344
      ],
      "min": [
        0.00037399999564513564,
        0.00037401914596557617
      ],
      "type": "VEC2"
    },
    {
      "bufferView": 0,
      "componentType": 5125,
      "count": 293100,
      "type": "SCALAR"
    },
    {
      "bufferView": 2,
      "byteOffset": 1572768,
      "componentType": 5126,
      "count": 65533,
      "max": [
        0.4197160005569458,
        0.06441699713468552,
        0.40778499841690063
      ],
      "min": [
        0.0321430005133152,
        -0.060026999562978745,
        -0.5080310106277466
      ],
      "type": "VEC3"
    },
    {
      "bufferView": 2,
      "byteOffset": 2359164,
      "componentType": 5126,
      "count": 65533,
      "max": [
        0.9999878406524658,
        0.999998927116394,
        0.9996374845504761
      ],
      "min": [
        -0.9997195601463318,
        -0.9999997615814209,
        -0.9999780654907227
      ],
      "type": "VEC3"
    },
    {
      "bufferView": 3,
      "byteOffset": 1048512,
      "componentType": 5126,
      "count": 65533,
      "max": [
        0.999997615814209,
        0.9999135136604309,
        0.9998955726623535,
        1.0
      ],
      "min": [
        -0.9999745488166809,
        -0.9999955296516418,
        -0.9999998211860657,
        -1.0
      ],
      "type": "VEC4"
    },
    {
      "bufferView": 1,
      "byteOffset": 2097024,
      "componentType": 5126,
      "count": 65533,
      "max": [
        0.9996259808540344,
        0.9996259808540344
      ],
      "min": [
        0.00037399999564513564,
        0.00037401914596557617
      ],
      "type": "VEC2"
    },
    {
      "bufferView": 1,
      "byteOffset": 2621288,
      "componentType": 5126,
      "count": 65533,
      "max": [
        0.9996259808540344,
        0.9996259808540344
      ],
      "min": [
        0.00037399999564513564,
        0.00037401914596557617
      ],
      "type": "VEC2"
    },
    {
      "bufferView": 1,
      "byteOffset": 3145552,
      "componentType": 5126,
      "count": 65533,
      "max": [
        0.9996259808540344,
        0.9996259808540344
      ],
      "min": [
        0.00037399999564513564,
        0.00037401914596557617
      ],
      "type": "VEC2"
    },
    {
      "bufferView": 1,
      "byteOffset": 3669816,
      "componentType": 5126,
      "count": 65533,
      "max": [
        0.9996259808540344,
        0.9996259808540344
      ],
      "min": [
        0.00037399999564513564,
        0.00037401914596557617
      ],
      "type": "VEC2"
    },
    {
      "bufferView": 0,
      "byteOffset": 1172400,
      "componentType": 5125,
      "count": 298296,
      "type": "SCALAR"
    },
    {
      "bufferView": 2,
      "byteOffset": 3145560,
      "componentType": 5126,
      "count": 65532,
      "max": [
        0.27219998836517334,
        0.04863100126385689,
        0.5126180052757263
      ],
      "min": [
        -0.49859198927879333,
        -0.06629300117492676,
        -0.5083770155906677
      ],
      "type": "VEC3"
    },
    {
      "bufferView": 2,
      "byteOffset": 3931944,
      "componentType": 5126,
      "count": 65532,
      "max": [
        0.9999790191650391,
        1.0,
        0.9999525547027588
      ],
      "min": [
        -0.999991774559021,
        -1.0,
        -0.999925971031189
      ],
      "type": "VEC3"
    },
    {
      "bufferView": 3,
      "byteOffset": 2097040,
      "componentType": 5126,
      "count": 65532,
      "max": [
        0.9999970197677612,
        0.9999954104423523,
        0.9999788403511047,
        1.0
      ],
      "min": [
        -0.999992311000824,
        -0.9999998211860657,
        -0.9999960064888,
        -1.0
      ],
      "type": "VEC4"
    },
    {
      "bufferView": 1,
      "byteOffset": 4194080,
      "componentType": 5126,
      "count": 65532,
      "max": [
        0.9996259808540344,
        0.9996259808540344
      ],
      "min": [
        0.00037399999564513564,
        0.00037401914596557617
      ],
      "type": "VEC2"
    },
    {
      "bufferView": 1,
      "byteOffset": 4718336,
      "componentType": 5126,
      "count": 65532,
      "max": [
        0.9996259808540344,
        0.9996259808540344
      ],
      "min": [
        0.00037399999564513564,
        0.00037401914596557617
      ],
      "type": "VEC2"
    },
    {
      "bufferView": 1,
      "byteOffset": 5242592,
      "componentType": 5126,
      "count": 65532,
      "max": [
        0.9996259808540344,
        0.9996259808540344
      ],
      "min": [
        0.00037399999564513564,
        0.00037401914596557617
      ],
      "type": "VEC2"
    },
    {
      "bufferView": 1,
      "byteOffset": 5766848,
      "componentType": 5126,
      "count": 65532,
      "max": [
        0.9996259808540344,
        0.9996259808540344
      ],
      "min": [
        0.00037399999564513564,
        0.00037401914596557617
      ],
      "type": "VEC2"
    },
    {
      "bufferView": 0,
      "byteOffset": 2365584,
      "componentType": 5125,
      "count": 293451,
      "type": "SCALAR"
    },
    {
      "bufferView": 2,
      "byteOffset": 4718328,
      "componentType": 5126,
      "count": 65532,
      "max": [
        -0.16119100153446198,
        0.04161800071597099,
        0.3675270080566406
      ],
      "min": [
        -0.5252540111541748,
        -0.06770700216293335,
        -0.520783007144928
      ],
      "type": "VEC3"
    },
    {
      "bufferView": 2,
      "byteOffset": 5504712,
      "componentType": 5126,
      "count": 65532,
      "max": [
        0.9998533725738525,
        0.9999984502792358,
        0.9999525547027588
      ],
      "min": [
        -0.9999967813491821,
        -0.9999979734420776,
        -0.9999998807907104
      ],
      "type": "VEC3"
    },
    {
      "bufferView": 3,
      "byteOffset": 3145552,
      "componentType": 5126,
      "count": 65532,
      "max": [
        0.9999881982803345,
        0.9999992847442627,
        0.9999980330467224,
        1.0
      ],
      "min": [
        -0.9999478459358215,
        -0.9999940991401672,
        -0.9999788403511047,
        -1.0
      ],
      "type": "VEC4"
    },
    {
      "bufferView": 1,
      "byteOffset": 6291104,
      "componentType": 5126,
      "count": 65532,
      "max": [
        0.9996259808540344,
        0.9996259808540344
      ],
      "min": [
        0.00037399999564513564,
        0.00037401914596557617
      ],
      "type": "VEC2"
    },
    {
      "bufferView": 1,
      "byteOffset": 6815360,
      "componentType": 5126,
      "count": 65532,
      "max": [
        0.9996259808540344,
        0.9996259808540344
      ],
      "min": [
        0.00037399999564513564,
        0.00037401914596557617
      ],
      "type": "VEC2"
    },
    {
      "bufferView": 1,
      "byteOffset": 7339616,
      "componentType": 5126,
      "count": 65532,
      "max": [
        0.9996259808540344,
        0.9996259808540344
      ],
      "min": [
        0.00037399999564513564,
        0.00037401914596557617
      ],
      "type": "VEC2"
    },
    {
      "bufferView": 1,
      "byteOffset": 7863872,
      "componentType": 5126,
      "count": 65532,
      "max": [
        0.9996259808540344,
        0.9996259808540344
      ],
      "min": [
        0.00037399999564513564,
        0.00037401914596557617
      ],
      "type": "VEC2"
    },
    {
      "bufferView": 0,
      "byteOffset": 3539388,
      "componentType": 5125,
      "count": 293214,
      "type": "SCALAR"
    },
    {
      "bufferView": 2,
      "byteOffset": 6291096,
      "componentType": 5126,
      "count": 65532,
      "max": [
        0.06206300109624863,
        0.026352999731898308,
        0.5213810205459595
      ],
      "min": [
        -0.36012300848960876,
        -0.06454700231552124,
        -0.5100060105323792
      ],
      "type": "VEC3"
    },
    {
      "bufferView": 2,
      "byteOffset": 7077480,
      "componentType": 5126,
      "count": 65532,
      "max": [
        0.9999806880950928,
        0.9999978542327881,
        0.9999752044677734
      ],
      "min": [
        -0.9999911785125732,
        -0.9999974966049194,
        -0.9999724626541138
      ],
      "type": "VEC3"
    },
    {
      "bufferView": 3,
      "byteOffset": 4194064,
      "componentType": 5126,
      "count": 65532,
      "max": [
        0.9999819397926331,
        0.9999995231628418,
        0.9999945759773254,
        1.0
      ],
      "min": [
        -0.9999724626541138,
        -0.999987781047821,
        -0.9999992847442627,
        -1.0
      ],
      "type": "VEC4"
    },
    {
      "bufferView": 1,
      "byteOffset": 8388128,
      "componentType": 5126,
      "count": 65532,
      "max": [
        0.9996259808540344,
        0.9988769888877869
      ],
      "min": [
        0.00037399999564513564,
        0.00037401914596557617
      ],
      "type": "VEC2"
    },
    {
      "bufferView": 1,
      "byteOffset": 8912384,
      "componentType": 5126,
      "count": 65532,
      "max": [
        0.9996259808540344,
        0.9988769888877869
      ],
      "min": [
        0.00037399999564513564,
        0.00037401914596557617
      ],
      "type": "VEC2"
    },
    {
      "bufferView": 1,
      "byteOffset": 9436640,
      "componentType": 5126,
      "count": 65532,
      "max": [
        0.9996259808540344,
        0.9988769888877869
      ],
      "min": [
        0.00037399999564513564,
        0.00037401914596557617
      ],
      "type": "VEC2"
    },
    {
      "bufferView": 1,
      "byteOffset": 9960896,
      "componentType": 5126,
      "count": 65532,
      "max": [
        0.9996259808540344,
        0.9988769888877869
      ],
      "min": [
        0.00037399999564513564,
        0.00037401914596557617
      ],
      "type": "VEC2"
    },
    {
      "bufferView": 0,
      "byteOffset": 4712244,
      "componentType": 5125,
      "count": 300918,
      "type": "SCALAR"
    },
    {
      "bufferView": 2,
      "byteOffset": 7863864,
      "componentType": 5126,
      "count": 4420,
      "max": [
        0.0391790010035038,
        -0.004358999896794558,
        0.42326200008392334
      ],
      "min": [
        -0.12236600369215012,
        -0.06459800153970718,
        0.17110399901866913
      ],
      "type": "VEC3"
    },
    {
      "bufferView": 2,
      "byteOffset": 7916904,
      "componentType": 5126,
      "count": 4420,
      "max": [
        0.9997987151145935,
        0.9999973773956299,
        0.9995852112770081
      ],
      "min": [
        -0.9997302293777466,
        -0.9999662637710571,
        -0.9999053478240967
      ],
      "type": "VEC3"
    },
    {
      "bufferView": 3,
      "byteOffset": 5242576,
      "componentType": 5126,
      "count": 4420,
      "max": [
        0.9998642802238464,
        0.9996269345283508,
        0.9998429417610168,
        1.0
      ],
      "min": [
        -0.9992150664329529,
        -0.9999849200248718,
        -0.9999774694442749,
        -1.0
      ],
      "type": "VEC4"
    },
    {
      "bufferView": 1,
      "byteOffset": 10485152,
      "componentType": 5126,
      "count": 4420,
      "max": [
        0.998878002166748,
        0.9958829879760742
      ],
      "min": [
        0.04225900024175644,
        0.017589986324310303
      ],
      "type": "VEC2"
    },
    {
      "bufferView": 1,
      "byteOffset": 10520512,
      "componentType": 5126,
      "count": 4420,
      "max": [
        0.998878002166748,
        0.9958829879760742
      ],
      "min": [
        0.04225900024175644,
        0.017589986324310303
      ],
      "type": "VEC2"
    },
    {
      "bufferView": 1,
      "byteOffset": 10555872,
      "componentType": 5126,
      "count": 4420,
      "max": [
        0.998878002166748,
        0.9958829879760742
      ],
      "min": [
        0.04225900024175644,
        0.017589986324310303
      ],
      "type": "VEC2"
    },
    {
      "bufferView": 1,
      "byteOffset": 10591232,
      "componentType": 5126,
      "count": 4420,
      "max": [
        0.998878002166748,
        0.9958829879760742
      ],
      "min": [
        0.04225900024175644,
        0.017589986324310303
      ],
      "type": "VEC2"
    },
    {
      "bufferView": 0,
      "byteOffset": 5915916,
      "componentType": 5125,
      "count": 19935,
      "type": "SCALAR"
    }
  ],
  "asset": {
    "extras": {
      "author": "franciscomedina77 (https://sketchfab.com/franciscomedina77)",
      "license": "CC-BY-4.0 (http://creativecommons.org/licenses/by/4.0/)",
      "source": "https://sketchfab.com/3d-models/collar-de-plumas-taino-ab9f4a9c960540e68d7c785bcedd3e83",
      "title": "Collar de plumas taíno"
    },
    "generator": "Sketchfab-16.72.0",
    "version": "2.0"
  },
  "bufferViews": [
    {
      "buffer": 0,
      "byteLength": 5995656,
      "name": "floatBufferViews",
      "target": 34963
    },
    {
      "buffer": 0,
      "byteLength": 10626592,
      "byteOffset": 5995656,
      "byteStride": 8,
      "name": "floatBufferViews",
      "target": 34962
    },
    {
      "buffer": 0,
      "byteLength": 7969944,
      "byteOffset": 16622248,
      "byteStride": 12,
      "name": "floatBufferViews",
      "target": 34962
    },
    {
      "buffer": 0,
      "byteLength": 5313296,
      "byteOffset": 24592192,
      "byteStride": 16,
      "name": "floatBufferViews",
      "target": 34962
    }
  ],
  "buffers": [
    {
      "byteLength": 29905488,
      "uri": "scene.bin"
    }
  ],
  "extensionsUsed": [
    "KHR_materials_specular"
  ],
  "images": [
    {
      "uri": "textures/Material.001_baseColor.png"
    },
    {
      "uri": "textures/Material.001_metallicRoughness.png"
    },
    {
      "uri": "textures/Material.001_normal.png"
    }
  ],
  "materials": [
    {
      "doubleSided": true,
      "extensions": {
        "KHR_materials_specular": {
          "specularColorFactor": [
            1.0,
            1.0,
            1.0
          ],
          "specularFactor": 1.0
        }
      },
      "name": "Material.001",
      "normalTexture": {
        "index": 2,
        "texCoord": 2
      },
      "pbrMetallicRoughness": {
        "baseColorTexture": {
          "index": 0
        },
        "metallicRoughnessTexture": {
          "index": 1,
          "texCoord": 1
        },
        "roughnessFactor": 0.048280408763609235
      }
    }
  ],
  "meshes": [
    {
      "name": "Object_0",
      "primitives": [
        {
          "attributes": {
            "NORMAL": 1,
            "POSITION": 0,
            "TANGENT": 2,
            "TEXCOORD_0": 3,
            "TEXCOORD_1": 4,
            "TEXCOORD_2": 5,
            "TEXCOORD_3": 6
          },
          "indices": 7,
          "material": 0,
          "mode": 4
        }
      ]
    },
    {
      "name": "Object_1",
      "primitives": [
        {
          "attributes": {
            "NORMAL": 9,
            "POSITION": 8,
            "TANGENT": 10,
            "TEXCOORD_0": 11,
            "TEXCOORD_1": 12,
            "TEXCOORD_2": 13,
            "TEXCOORD_3": 14
          },
          "indices": 15,
          "material": 0,
          "mode": 4
        }
      ]
    },
    {
      "name": "Object_2",
      "primitives": [
        {
          "attributes": {
            "NORMAL": 17,
            "POSITION": 16,
            "TANGENT": 18,
            "TEXCOORD_0": 19,
            "TEXCOORD_1": 20,
            "TEXCOORD_2": 21,
            "TEXCOORD_3": 22
          },
          "indices": 23,
          "material": 0,
          "mode": 4
        }
      ]
    },
    {
      "name": "Object_3",
      "primitives": [
        {
          "attributes": {
            "NORMAL": 25,
            "POSITION": 24,
            "TANGENT": 26,
            "TEXCOORD_0": 27,
            "TEXCOORD_1": 28,
            "TEXCOORD_2": 29,
            "TEXCOORD_3": 30
          },
          "indices": 31,
          "material": 0,
          "mode": 4
        }
      ]
    },
    {
      "name": "Object_4",
      "primitives": [
        {
          "attributes": {
            "NORMAL": 33,
            "POSITION": 32,
            "TANGENT": 34,
            "TEXCOORD_0": 35,
            "TEXCOORD_1": 36,
            "TEXCOORD_2": 37,
            "TEXCOORD_3": 38
          },
          "indices": 39,
          "material": 0,
          "mode": 4
        }
      ]
    },
    {
      "name": "Object_5",
      "primitives": [
        {
          "attributes": {
            "NORMAL": 41,
            "POSITION": 40,
            "TANGENT": 42,
            "TEXCOORD_0": 43,
            "TEXCOORD_1": 44,
            "TEXCOORD_2": 45,
            "TEXCOORD_3": 46
          },
          "indices": 47,
          "material": 0,
          "mode": 4
        }
      ]
    }
  ],
  "nodes": [
    {
      "children": [
        1
      ],
      "matrix": [
        1.0,
        0.0,
        0.0,
        0.0,
        0.0,
        2.220446049250313e-16,
        -1.0,
        0.0,
        0.0,
        1.0,
        2.220446049250313e-16,
        0.0,
        0.0,
        0.0,
        0.0,
        1.0
      ],
      "name": "Sketchfab_model"
    },
    {
      "children": [
        2
      ],
      "name": "root"
    },
    {
      "children": [
        3
      ],
      "matrix": [
        1.0,
        0.0,
        0.0,
        0.0,
        0.0,
        2.220446049250313e-16,
        1.0,
        0.0,
        0.0,
        -1.0,
        2.220446049250313e-16,
        0.0,
        0.0,
        0.0,
        0.0,
        1.0
      ],
      "name": "GLTF_SceneRootNode"
    },
    {
      "children": [
        4,
        5,
        6,
        7,
        8,
        9
      ],
      "matrix": [
        1.0,
        0.0,
        0.0,
        0.0,
        0.0,
        0.0,
        1.0,
        0.0,
        0.0,
        -1.0,
        0.0,
        0.0,
        0.0,
        0.0,
        0.0,
        1.0
      ],
      "name": "texture_pbr_v128_0"
    },
    {
      "mesh": 0,
      "name": "Object_4"
    },
    {
      "mesh": 1,
      "name": "Object_5"
    },
    {
      "mesh": 2,
      "name": "Object_6"
    },
    {
      "mesh": 3,
      "name": "Object_7"
    },
    {
      "mesh": 4,
      "name": "Object_8"
    },
    {
      "mesh": 5,
      "name": "Object_9"
    }
  ],
  "samplers": [
    {
      "magFilter": 9729,
      "minFilter": 9987,
      "wrapS": 10497,
      "wrapT": 10497
    }
  ],
  "scene": 0,
  "scenes": [
    {
      "name": "Sketchfab_Scene",
      "nodes": [
        0
      ]
    }
  ],
  "textures": [
    {
      "sampler": 0,
      "source": 0
    },
    {
      "sampler": 0,
      "source": 1
    },
    {
      "sampler": 0,
      "source": 2
    }
  ]
}
