{
  "accessors": [
    {
      "bufferView": 2,
      "componentType": 5126,
      "count": 65532,
      "max": [
        19.26420021057129,
        46.09000015258789,
        34.854801177978516
      ],
      "min": [
        -9.992799758911133,
        -25.105300903320313,
        -36.277400970458984
      ],
      "type": "VEC3"
    },
    {
      "bufferView": 2,
      "byteOffset": 786384,
      "componentType": 5126,
      "count": 65532,
      "max": [
        0.9999662637710571,
        0.999998152256012,
        0.9942942261695862
      ],
      "min": [
        -0.9482679963111877,
        -0.952927827835083,
        -0.9990763664245605
      ],
      "type": "VEC3"
    },
    {
      "bufferView": 1,
      "componentType": 5126,
      "count": 65532,
      "max": [
        0.9996560215950012,
        1.0
      ],
      "min": [
        0.0,
        0.0037769998889416456
      ],
      "type": "VEC2"
    },
    {
      "bufferView": 0,
      "componentType": 5125,
      "count": 299328,
      "type": "SCALAR"
    },
    {
      "bufferView": 2,
      "byteOffset": 1572768,
      "componentType": 5126,
      "count": 65532,
      "max": [
        19.051000595092773,
        48.752201080322266,
        34.804100036621094
      ],
      "min": [
        -18.078500747680664,
        -27.436599731445313,
        -36.08769989013672
      ],
      "type": "VEC3"
    },
    {
      "bufferView": 2,
      "byteOffset": 2359152,
      "componentType": 5126,
      "count": 65532,
      "max": [
        0.9909243583679199,
        0.9999721050262451,
        0.9613829255104065
      ],
      "min": [
        -0.9824478030204773,
        -0.9997199773788452,
        -0.999695360660553
      ],
      "type": "VEC3"
    },
    {
      "bufferView": 1,
      "byteOffset": 524256,
      "componentType": 5126,
      "count": 65532,
      "max": [
        0.9996560215950012,
        1.0
      ],
      "min": [
        0.0,
        0.0037769998889416456
      ],
      "type": "VEC2"
    },
    {
      "bufferView": 0,
      "byteOffset": 1197312,
      "componentType": 5125,
      "count": 350451,
      "type": "SCALAR"
    },
    {
      "bufferView": 2,
      "byteOffset": 3145536,
      "componentType": 5126,
      "count": 65532,
      "max": [
        16.606199264526367,
        47.78219985961914,
        35.47370147705078
      ],
      "min": [
        -19.27669906616211,
        -48.3406982421875,
        -36.9744987487793
      ],
      "type": "VEC3"
    },
    {
      "bufferView": 2,
      "byteOffset": 3931920,
      "componentType": 5126,
      "count": 65532,
      "max": [
        0.7548448443412781,
        0.9994194507598877,
        0.9999972581863403
      ],
      "min": [
        -0.9999986886978149,
        -0.9613221287727356,
        -0.9999773502349854
      ],
      "type": "VEC3"
    },
    {
      "bufferView": 1,
      "byteOffset": 1048512,
      "componentType": 5126,
      "count": 65532,
      "max": [
        0.9996560215950012,
        1.0
      ],
      "min": [
        0.0,
        0.005150999873876572
      ],
      "type": "VEC2"
    },
    {
      "bufferView": 0,
      "byteOffset": 2599116,
      "componentType": 5125,
      "count": 341685,
      "type": "SCALAR"
    },
    {
      "bufferView": 2,
      "byteOffset": 4718304,
      "componentType": 5126,
      "count": 65532,
      "max": [
        16.50040054321289,
        47.7338981628418,
        36.48320007324219
      ],
      "min": [
        -19.330101013183594,
        -48.559200286865234,
        -35.59700012207031
      ],
      "type": "VEC3"
    },
    {
      "bufferView": 2,
      "byteOffset": 5504688,
      "componentType": 5126,
      "count": 65532,
      "max": [
        0.9650804996490479,
        0.7332460284233093,
        0.9999983906745911
      ],
      "min": [
        -0.9999949336051941,
        -0.999849259853363,
        -0.9916946291923523
      ],
      "type": "VEC3"
    },
    {
      "bufferView": 1,
      "byteOffset": 1572768,
      "componentType": 5126,
      "count": 65532,
      "max": [
        0.9996560215950012,
        1.0
      ],
      "min": [
        0.0,
        0.0003429999924264848
      ],
      "type": "VEC2"
    },
    {
      "bufferView": 0,
      "byteOffset": 3965856,
      "componentType": 5125,
      "count": 288129,
      "type": "SCALAR"
    },
    {
      "bufferView": 2,
      "byteOffset": 6291072,
      "componentType": 5126,
      "count": 40541,
      "max": [
        19.330101013183594,
        46.3557014465332,
        34.97639846801758
      ],
      "min": [
        -19.27440071105957,
        -48.28219985961914,
        -36.267799377441406
      ],
      "type": "VEC3"
    },
    {
      "bufferView": 2,
      "byteOffset": 6777564,
      "componentType": 5126,
      "count": 40541,
      "max": [
        0.9999912977218628,
        0.9377024173736572,
        0.7596572041511536
      ],
      "min": [
        -0.9803981184959412,
        -0.8954374194145203,
        -0.9035831093788147
      ],
      "type": "VEC3"
    },
    {
      "bufferView": 1,
      "byteOffset": 2097024,
      "componentType": 5126,
      "count": 40541,
      "max": [
        0.9989669919013977,
        1.0
      ],
      "min": [
        0.0,
        0.005150999873876572
      ],
      "type": "VEC2"
    },
    {
      "bufferView": 0,
      "byteOffset": 5118372,
      "componentType": 5125,
      "count": 220407,
      "type": "SCALAR"
    }
  ],
  "asset": {
    "extras": {
      "author": "franciscomedina77 (https://sketchfab.com/franciscomedina77)",
      "license": "CC-BY-4.0 (http://creativecommons.org/licenses/by/4.0/)",
      "source": "https://sketchfab.com/3d-models/trigonolito-o-idolo-taino-de-tres-puntas-cc3c84405f7846d99a4da2b91a093e16",
      "title": "Trigonolito o Ídolo Taino de tres puntas"
    },
    "generator": "Sketchfab-16.72.0",
    "version": "2.0"
  },
  "bufferViews": [
    {
      "buffer": 0,
      "byteLength": 6000000,
      "name": "floatBufferViews",
      "target": 34963
    },
    {
      "buffer": 0,
      "byteLength": 2421352,
      "byteOffset": 6000000,
      "byteStride": 8,
      "name": "floatBufferViews",
      "target": 34962
    },
    {
      "buffer": 0,
      "byteLength": 7264056,
      "byteOffset": 8421352,
      "byteStride": 12,
      "name": "floatBufferViews",
      "target": 34962
    }
  ],
  "buffers": [
    {
      "byteLength": 15685408,
      "uri": "scene.bin"
    }
  ],
  "extensionsUsed": [
    "KHR_materials_specular"
  ],
  "images": [
    {
      "uri": "textures/Material.571_baseColor.png"
    }
  ],
  "materials": [
    {
      "doubleSided": true,
      "extensions": {
        "KHR_materials_specular": {
          "specularColorFactor": [
            1.0,
            1.0,
            1.0
          ],
          "specularFactor": 0.6980924491126858
        }
      },
      "name": "Material.571",
      "pbrMetallicRoughness": {
        "baseColorTexture": {
          "index": 0
        },
        "metallicFactor": 0.15759458377560343,
        "roughnessFactor": 0.30798056061020274
      }
    }
  ],
  "meshes": [
    {
      "name": "material_Material.571_0",
      "primitives": [
        {
          "attributes": {
            "NORMAL": 1,
            "POSITION": 0,
            "TEXCOORD_0": 2
          },
          "indices": 3,
          "material": 0,
          "mode": 4
        }
      ]
    },
    {
      "name": "material_Material.571_0",
      "primitives": [
        {
          "attributes": {
            "NORMAL": 5,
            "POSITION": 4,
            "TEXCOORD_0": 6
          },
          "indices": 7,
          "material": 0,
          "mode": 4
        }
      ]
    },
    {
      "name": "material_Material.571_0",
      "primitives": [
        {
          "attributes": {
            "NORMAL": 9,
            "POSITION": 8,
            "TEXCOORD_0": 10
          },
          "indices": 11,
          "material": 0,
          "mode": 4
        }
      ]
    },
    {
      "name": "material_Material.571_0",
      "primitives": [
        {
          "attributes": {
            "NORMAL": 13,
            "POSITION": 12,
            "TEXCOORD_0": 14
          },
          "indices": 15,
          "material": 0,
          "mode": 4
        }
      ]
    },
    {
      "name": "material_Material.571_0",
      "primitives": [
        {
          "attributes": {
            "NORMAL": 17,
            "POSITION": 16,
            "TEXCOORD_0": 18
          },
          "indices": 19,
          "material": 0,
          "mode": 4
        }
      ]
    }
  ],
  "nodes": [
    {
      "children": [
        1
      ],
      "matrix": [
        1.0,
        0.0,
        0.0,
        0.0,
        0.0,
        2.220446049250313e-16,
        -1.0,
        0.0,
        0.0,
        1.0,
        2.220446049250313e-16,
        0.0,
        0.0,
        0.0,
        0.0,
        1.0
      ],
      "name": "Sketchfab_model"
    },
    {
      "children": [
        2
      ],
      "matrix": [
        0.009999999776482582,
        0.0,
        0.0,
        0.0,
        0.0,
        0.0,
        0.009999999776482582,
        0.0,
        0.0,
        -0.009999999776482582,
        0.0,
        0.0,
        0.0,
        0.0,
        0.0,
        1.0
      ],
      "name": "9bdd239da2a441978c0ca3abdacd454f.fbx"
    },
    {
      "children": [
        3
      ],
      "name": "RootNode"
    },
    {
      "children": [
        4,
        5,
        6,
        7,
        8
      ],
      "matrix": [
        1.0,
        0.0,
        0.0,
        0.0,
        0.0,
        -4.371139006309477e-08,
        0.999999999999999,
        0.0,
        0.0,
        -0.999999999999999,
        -4.371139006309477e-08,
        0.0,
        0.0,
        0.0,
        0.0,
        1.0
      ],
      "name": "material"
    },
    {
      "mesh": 0,
      "name": "material_Material.571_0"
    },
    {
      "mesh": 1,
      "name": "material_Material.571_0"
    },
    {
      "mesh": 2,
      "name": "material_Material.571_0"
    },
    {
      "mesh": 3,
      "name": "material_Material.571_0"
    },
    {
      "mesh": 4,
      "name": "material_Material.571_0"
    }
  ],
  "samplers": [
    {
      "magFilter": 9729,
      "minFilter": 9987,
      "wrapS": 10497,
      "wrapT": 10497
    }
  ],
  "scene": 0,
  "scenes": [
    {
      "name": "Sketchfab_Scene",
      "nodes": [
        0
      ]
    }
  ],
  "textures": [
    {
      "sampler": 0,
      "source": 0
    }
  ]
}
