{
  "accessors": [
    {
      "bufferView": 2,
      "componentType": 5126,
      "count": 1538,
      "max": [
        34.35020065307617,
        9.186300277709961,
        98.11260223388672
      ],
      "min": [
        -34.513999938964844,
        -8.999899864196777,
        -75.68099975585938
      ],
      "type": "VEC3"
    },
    {
      "bufferView": 2,
      "byteOffset": 18456,
      "componentType": 5126,
      "count": 1538,
      "max": [
        0.9999392032623291,
        0.9945297241210938,
        0.9999909400939941
      ],
      "min": [
        -0.9999427795410156,
        -0.9999372959136963,
        -0.9999909400939941
      ],
      "type": "VEC3"
    },
    {
      "bufferView": 3,
      "componentType": 5126,
      "count": 1538,
      "max": [
        0.9999855756759644,
        0.9999377131462097,
        0.9999186396598816,
        1.0
      ],
      "min": [
        -0.9999428391456604,
        -0.9999591112136841,
        -0.9998447299003601,
        -1.0
      ],
      "type": "VEC4"
    },
    {
      "bufferView": 1,
      "componentType": 5126,
      "count": 1538,
      "max": [
        0.9846000075340271,
        0.9613000154495239
      ],
      "min": [
        0.011300000362098217,
        0.012000000104308128
      ],
      "type": "VEC2"
    },
    {
      "bufferView": 0,
      "componentType": 5125,
      "count": 7164,
      "type": "SCALAR"
    }
  ],
  "asset": {
    "extras": {
      "author": "AnnaBelle Fibonacci (https://sketchfab.com/annabellefibonacci)",
      "license": "CC-BY-4.0 (http://creativecommons.org/licenses/by/4.0/)",
      "source": "https://sketchfab.com/3d-models/mirror-6b7e52f57da2497586b29c02608a402d",
      "title": "Mirror"
    },
    "generator": "Sketchfab-13.52.1",
    "version": "2.0"
  },
  "bufferViews": [
    {
      "buffer": 0,
      "byteLength": 28656,
      "name": "floatBufferViews",
      "target": 34963
    },
    {
      "buffer": 0,
      "byteLength": 12304,
      "byteOffset": 28656,
      "byteStride": 8,
      "name": "floatBufferViews",
      "target": 34962
    },
    {
      "buffer": 0,
      "byteLength": 36912,
      "byteOffset": 40960,
      "byteStride": 12,
      "name": "floatBufferViews",
      "target": 34962
    },
    {
      "buffer": 0,
      "byteLength": 24608,
      "byteOffset": 77872,
      "byteStride": 16,
      "name": "floatBufferViews",
      "target": 34962
    }
  ],
  "buffers": [
    {
      "byteLength": 102480,
      "uri": "scene.bin"
    }
  ],
  "extensionsUsed": [
    "KHR_materials_clearcoat"
  ],
  "images": [
    {
      "uri": "textures/Mirror_2_baseColor.jpeg"
    },
    {
      "uri": "textures/Mirror_2_metallicRoughness.png"
    },
    {
      "uri": "textures/Mirror_2_normal.png"
    }
  ],
  "materials": [
    {
      "doubleSided": true,
      "extensions": {
        "KHR_materials_clearcoat": {
          "clearcoatFactor": 0.1480564024390244,
          "clearcoatRoughnessFactor": 0.0
        }
      },
      "name": "Mirror_2",
      "normalTexture": {
        "index": 2
      },
      "pbrMetallicRoughness": {
        "baseColorTexture": {
          "index": 0
        },
        "metallicRoughnessTexture": {
          "index": 1
        }
      }
    }
  ],
  "meshes": [
    {
      "name": "Object_0",
      "primitives": [
        {
          "attributes": {
            "NORMAL": 1,
            "POSITION": 0,
            "TANGENT": 2,
            "TEXCOORD_0": 3
          },
          "indices": 4,
          "material": 0,
          "mode": 4
        }
      ]
    }
  ],
  "nodes": [
    {
      "children": [
        1
      ],
      "matrix": [
        0.8159186840057373,
        0.052814763039350635,
        -0.5757493376731873,
        0.0,
        -0.1571265608072281,
        -0.9380838274955748,
        -0.30872318148613,
        0.0,
        -0.5564062595367432,
        0.3423585295677187,
        -0.757101535797119,
        0.0,
        0.0,
        0.0,
        0.0,
        1.0
      ],
      "name": "Sketchfab_model"
    },
    {
      "children": [
        2
      ],
      "name": "07f67e34460c427084f84e1d5780165f.obj.cleaner.materialmerger.gles"
    },
    {
      "mesh": 0,
      "name": "Object_2"
    }
  ],
  "samplers": [
    {
      "magFilter": 9729,
      "minFilter": 9987,
      "wrapS": 10497,
      "wrapT": 10497
    }
  ],
  "scene": 0,
  "scenes": [
    {
      "name": "Sketchfab_Scene",
      "nodes": [
        0
      ]
    }
  ],
  "textures": [
    {
      "sampler": 0,
      "source": 0
    },
    {
      "sampler": 0,
      "source": 1
    },
    {
      "sampler": 0,
      "source": 2
    }
  ]
}
