{
  "accessors": [
    {
      "bufferView": 2,
      "componentType": 5126,
      "count": 65532,
      "max": [
        2.3343520164489746,
        7.91149377822876,
        1.3727350234985352
      ],
      "min": [
        -1.0520139932632446,
        6.487297058105469,
        -2.0097970962524414
      ],
      "type": "VEC3"
    },
    {
      "bufferView": 2,
      "byteOffset": 786384,
      "componentType": 5126,
      "count": 65532,
      "max": [
        0.999978244304657,
        0.9998556971549988,
        0.9999178051948547
      ],
      "min": [
        -0.999954879283905,
        -1.0,
        -0.9999787211418152
      ],
      "type": "VEC3"
    },
    {
      "bufferView": 3,
      "componentType": 5126,
      "count": 65532,
      "max": [
        0.8156862854957581,
        0.8039215803146362,
        0.8549019694328308,
        1.0
      ],
      "min": [
        0.0,
        0.0,
        0.0,
        1.0
      ],
      "type": "VEC4"
    },
    {
      "bufferView": 1,
      "componentType": 5126,
      "count": 65532,
      "max": [
        0.9728620052337646,
        1.0
      ],
      "min": [
        0.0,
        0.0
      ],
      "type": "VEC2"
    },
    {
      "bufferView": 0,
      "componentType": 5125,
      "count": 350004,
      "type": "SCALAR"
    },
    {
      "bufferView": 2,
      "byteOffset": 1572768,
      "componentType": 5126,
      "count": 24486,
      "max": [
        2.3293440341949463,
        7.90751314163208,
        0.592432975769043
      ],
      "min": [
        -1.0343070030212402,
        6.4875969886779785,
        -2.0078508853912354
      ],
      "type": "VEC3"
    },
    {
      "bufferView": 2,
      "byteOffset": 1866600,
      "componentType": 5126,
      "count": 24486,
      "max": [
        0.9999954700469971,
        0.9998481869697571,
        0.9993537664413452
      ],
      "min": [
        -0.9999257922172546,
        -1.0,
        -0.999968945980072
      ],
      "type": "VEC3"
    },
    {
      "bufferView": 3,
      "byteOffset": 1048512,
      "componentType": 5126,
      "count": 24486,
      "max": [
        0.7960784435272217,
        0.7764706015586853,
        0.8352941274642944,
        1.0
      ],
      "min": [
        0.0,
        0.0,
        0.0,
        1.0
      ],
      "type": "VEC4"
    },
    {
      "bufferView": 1,
      "byteOffset": 524256,
      "componentType": 5126,
      "count": 24486,
      "max": [
        0.9760580062866211,
        0.9991009831428528
      ],
      "min": [
        0.0005339999916031957,
        0.0
      ],
      "type": "VEC2"
    },
    {
      "bufferView": 0,
      "byteOffset": 1400016,
      "componentType": 5125,
      "count": 93381,
      "type": "SCALAR"
    }
  ],
  "asset": {
    "extras": {
      "author": "GEOVERTICE (https://sketchfab.com/GEOVERTICE)",
      "license": "CC-BY-4.0 (http://creativecommons.org/licenses/by/4.0/)",
      "source": "https://sketchfab.com/3d-models/busto-taino-7988b6f653834b738ab632e09f001796",
      "title": "BUSTO TAINO"
    },
    "generator": "Sketchfab-12.67.0",
    "version": "2.0"
  },
  "bufferViews": [
    {
      "buffer": 0,
      "byteLength": 1773540,
      "name": "floatBufferViews",
      "target": 34963
    },
    {
      "buffer": 0,
      "byteLength": 720144,
      "byteOffset": 1773540,
      "byteStride": 8,
      "name": "floatBufferViews",
      "target": 34962
    },
    {
      "buffer": 0,
      "byteLength": 2160432,
      "byteOffset": 2493684,
      "byteStride": 12,
      "name": "floatBufferViews",
      "target": 34962
    },
    {
      "buffer": 0,
      "byteLength": 1440288,
      "byteOffset": 4654116,
      "byteStride": 16,
      "name": "floatBufferViews",
      "target": 34962
    }
  ],
  "buffers": [
    {
      "byteLength": 6094404,
      "uri": "scene.bin"
    }
  ],
  "images": [
    {
      "uri": "textures/BUSTO_TAINO.1001_baseColor.jpeg"
    },
    {
      "uri": "textures/BUSTO_TAINO.1001_metallicRoughness.png"
    }
  ],
  "materials": [
    {
      "doubleSided": true,
      "name": "BUSTO_TAINO.1001",
      "pbrMetallicRoughness": {
        "baseColorTexture": {
          "index": 0
        },
        "metallicRoughnessTexture": {
          "index": 1
        },
        "roughnessFactor": 0.7700076219512195
      }
    }
  ],
  "meshes": [
    {
      "name": "Object_0",
      "primitives": [
        {
          "attributes": {
            "COLOR_0": 2,
            "NORMAL": 1,
            "POSITION": 0,
            "TEXCOORD_0": 3
          },
          "indices": 4,
          "material": 0,
          "mode": 4
        }
      ]
    },
    {
      "name": "Object_1",
      "primitives": [
        {
          "attributes": {
            "COLOR_0": 7,
            "NORMAL": 6,
            "POSITION": 5,
            "TEXCOORD_0": 8
          },
          "indices": 9,
          "material": 0,
          "mode": 4
        }
      ]
    }
  ],
  "nodes": [
    {
      "children": [
        1
      ],
      "matrix": [
        0.7984490394592285,
        1.3368472190586366e-16,
        -0.602062463760376,
        0.0,
        1.6653345369377348e-16,
        -1.0,
        8.326672684688674e-17,
        0.0,
        -0.602062463760376,
        -1.8353118148368075e-16,
        -0.7984490394592285,
        0.0,
        -0.06254816055297852,
        6.880867958068849,
        -7.067708492279051,
        1.0
      ],
      "name": "Sketchfab_model"
    },
    {
      "children": [
        2,
        3
      ],
      "name": "BUSTO TAINO.obj.cleaner.materialmerger.gles"
    },
    {
      "mesh": 0,
      "name": "Object_2"
    },
    {
      "mesh": 1,
      "name": "Object_3"
    }
  ],
  "samplers": [
    {
      "magFilter": 9729,
      "minFilter": 9987,
      "wrapS": 10497,
      "wrapT": 10497
    }
  ],
  "scene": 0,
  "scenes": [
    {
      "name": "Sketchfab_Scene",
      "nodes": [
        0
      ]
    }
  ],
  "textures": [
    {
      "sampler": 0,
      "source": 0
    },
    {
      "sampler": 0,
      "source": 1
    }
  ]
}
